HIERARCHY
ROOT hip
{
	OFFSET 0.000000 0.000000 0.000000 
	CHANNELS 6 Xposition Yposition Zposition Xrotation Zrotation Yrotation
	JOINT abdomen
	{
		OFFSET 0.000000 3.402643 0.000000 
		CHANNELS 3 Xrotation Zrotation Yrotation
		JOINT chest
		{
			OFFSET 0.000000 8.438565 -0.680529 
			CHANNELS 3 Xrotation Zrotation Yrotation
			JOINT neck
			{
				OFFSET 0.000000 10.207942 -0.272212 
				CHANNELS 3 Xrotation Zrotation Yrotation
				JOINT head
				{
					OFFSET 0.000000 3.130431 0.000000 
					CHANNELS 3 Xrotation Zrotation Yrotation
					End Site
					{
						OFFSET 0.000000 3.130435 0.000000 
					}
				}
			}
			JOINT lCollar
			{
				OFFSET 3.470700 6.669187 -0.816635 
				CHANNELS 3 Yrotation Zrotation Xrotation
				JOINT lShldr
				{
					OFFSET 3.198488 0.000000 0.000000 
					CHANNELS 3 Zrotation Yrotation Xrotation
					JOINT lForeArm
					{
						OFFSET 10.139888 0.000000 0.000000 
						CHANNELS 3 Yrotation Zrotation Xrotation
						JOINT lHand
						{
							OFFSET 8.370511 0.000000 0.000000 
							CHANNELS 3 Zrotation Yrotation Xrotation
							End Site
							{
								OFFSET 4.083176 0.000000 0.000000 
							}
						}
					}
				}
			}
			JOINT rCollar
			{
				OFFSET -3.470700 6.669187 -0.816635 
				CHANNELS 3 Yrotation Zrotation Xrotation
				JOINT rShldr
				{
					OFFSET -3.198488 0.000000 0.000000 
					CHANNELS 3 Zrotation Yrotation Xrotation
					JOINT rForeArm
					{
						OFFSET -10.139888 0.000000 0.000000 
						CHANNELS 3 Yrotation Zrotation Xrotation
						JOINT rHand
						{
							OFFSET -8.370511 0.000000 0.000000 
							CHANNELS 3 Zrotation Yrotation Xrotation
							End Site
							{
								OFFSET -4.083176 0.000000 0.000000 
							}
						}
					}
				}
			}
		}
	}
	JOINT lThigh
	{
		OFFSET 5.308129 -1.633274 1.361059 
		CHANNELS 3 Xrotation Zrotation Yrotation
		JOINT lShin
		{
			OFFSET -2.041588 -20.007561 0.000000 
			CHANNELS 3 Xrotation Zrotation Yrotation
			JOINT lFoot
			{
				OFFSET 0.000000 -19.190928 -1.224953 
				CHANNELS 3 Xrotation Yrotation Zrotation
				End Site
				{
					OFFSET 0.000000 -2.449906 4.627600 
				}
			}
		}
	}
	JOINT rThigh
	{
		OFFSET -5.308129 -1.633274 1.361059 
		CHANNELS 3 Xrotation Zrotation Yrotation
		JOINT rShin
		{
			OFFSET 2.041588 -20.007561 0.000000 
			CHANNELS 3 Xrotation Zrotation Yrotation
			JOINT rFoot
			{
				OFFSET 0.000000 -19.190928 -1.224953 
				CHANNELS 3 Xrotation Yrotation Zrotation
				End Site
				{
					OFFSET 0.000000 -2.449906 4.627600 
				}
			}
		}
	}
}
MOTION
Frames: 11
Frame Time: 0.016667
-3.831741 52.746620 -0.205097 -11.186084 -1.375922 2.217330 28.894285 0.267124 1.069757 -0.482243 2.138629 -0.566519 -8.305339 -2.533286 0.294354 9.360297 2.451965 -4.896863 -5.191611 -13.430667 -0.713224 -56.321083 5.099019 -8.347843 -24.995913 -5.000000 36.849148 -22.261950 -10.405572 20.480139 3.899397 15.498923 -0.820410 63.841553 1.903119 0.615615 82.074707 -5.000000 -2.155537 -2.871616 -0.485199 -19.238363 20.167250 19.722015 14.915294 2.074242 -6.487039 -0.547486 -2.690468 7.260926 -9.742859 21.238310 -7.490759 -22.375954 1.952864 1.955354 0.082019 -3.973660 -4.047176 9.634252 
-3.828876 52.746620 -0.206732 -11.186698 -1.385671 2.227092 28.885334 0.320834 1.069948 -0.503598 2.138617 -0.605547 -8.236845 -2.592682 0.293469 9.405990 2.413325 -4.818398 -5.172584 -13.469679 -0.715235 -56.303295 5.120781 -8.356877 -24.998425 -5.000000 36.824322 -22.287140 -10.432237 20.476736 3.987287 15.498921 -0.820410 63.823856 1.868488 0.610219 82.103195 -5.000000 -2.153898 -2.852242 -0.540937 -19.245354 20.179712 19.723505 14.936468 2.056283 -6.471969 -0.496868 -2.690261 7.193180 -9.706835 21.221956 -7.480153 -22.363354 1.947240 1.933514 0.072157 -3.950792 -4.064692 9.690345 
-3.826799 52.746620 -0.206549 -11.186840 -1.395439 2.217328 28.876024 0.334842 1.086463 -0.513800 2.148380 -0.625071 -8.168635 -2.621648 0.297850 9.435290 2.423125 -4.798883 -5.160736 -13.490062 -0.706783 -56.293613 5.130322 -8.350582 -25.017843 -5.000000 36.792610 -22.297478 -10.411715 20.463558 4.016584 15.498921 -0.820410 63.814732 1.859834 0.614171 82.111885 -5.000000 -2.156365 -2.848801 -0.580019 -19.223986 20.172779 19.715876 14.942912 2.056303 -6.472021 -0.506618 -2.693442 7.197155 -9.684429 21.211172 -7.480154 -22.343336 1.946537 1.934023 0.081906 -3.957769 -4.103383 9.673974 
-3.825248 52.746620 -0.205151 -11.186739 -1.405216 2.197802 28.856375 0.321914 1.092066 -0.503738 2.158148 -0.634843 -8.119909 -2.640959 0.300770 9.451115 2.452214 -4.828566 -5.170626 -13.499813 -0.707287 -56.292816 5.124919 -8.342488 -25.066322 -5.000000 36.742390 -22.288635 -10.368516 20.437756 4.006819 15.498921 -0.820410 63.795277 1.868615 0.631087 82.120575 -5.000000 -2.158819 -2.858027 -0.612130 -19.183397 20.189041 19.713478 14.985272 2.044636 -6.475922 -0.534978 -2.697259 7.228020 -9.702709 21.210939 -7.480216 -22.303394 1.946735 1.934219 0.062380 -3.965738 -4.132997 9.640257 
-3.825105 52.746334 -0.202495 -11.186500 -1.405225 2.188039 28.846304 0.295822 1.102272 -0.493673 2.167916 -0.644614 -8.060967 -2.661732 0.294045 9.468157 2.471605 -4.848078 -5.170751 -13.509566 -0.707789 -56.292027 5.119515 -8.334392 -25.102688 -5.000000 36.703796 -22.273802 -10.353526 20.398483 3.997053 15.498923 -0.820410 63.784870 1.877479 0.626494 82.129959 -5.000000 -2.158673 -2.889060 -0.640927 -19.133322 20.204365 19.726250 14.998889 2.044796 -6.486182 -0.544722 -2.710727 7.241599 -9.697251 21.221493 -7.480279 -22.283470 1.941998 1.939176 0.052180 -3.952407 -4.170444 9.625144 
-3.830590 52.744850 -0.194803 -11.206510 -1.405207 2.207565 28.845770 0.276525 1.093276 -0.465632 2.187438 -0.693419 -8.051252 -2.671388 0.295505 9.479575 2.452143 -4.848079 -5.131689 -13.509566 -0.707789 -56.291164 5.089748 -8.342566 -25.128115 -5.000000 36.693455 -22.247465 -10.408332 20.359600 4.026641 15.518425 -0.821420 63.763859 1.878039 0.582207 82.172340 -5.000000 -2.140015 -2.948718 -0.616561 -19.066431 20.223747 19.736584 14.963758 2.047788 -6.526164 -0.534903 -2.765855 7.266489 -9.674450 21.253561 -7.480355 -22.293591 1.937786 1.915495 0.061882 -3.955103 -4.137388 9.649066 
-3.836074 52.743378 -0.187110 -11.216137 -1.395439 2.217328 28.835501 0.257943 1.084574 -0.437611 2.206961 -0.732457 -8.031822 -2.690699 0.298425 9.481227 2.432682 -4.848080 -5.092625 -13.509565 -0.707789 -56.300816 5.072086 -8.354277 -25.153543 -5.000000 36.686832 -22.211744 -10.466502 20.317141 4.056083 15.528175 -0.821925 63.752625 1.878478 0.538239 82.204269 -5.000000 -2.125428 -3.004941 -0.602300 -19.018583 20.233408 19.755386 14.959802 2.066188 -6.540901 -0.546526 -2.819868 7.298360 -9.670949 21.279705 -7.470487 -22.301344 1.951448 1.929262 0.072250 -4.013519 -4.141075 9.658523 
-3.832259 52.744270 -0.182295 -11.225051 -1.385699 2.197803 28.855415 0.244263 1.121954 -0.396106 2.128852 -0.654377 -8.090561 -2.631304 0.299310 9.470753 2.500395 -4.955819 -5.124134 -13.498943 -0.716744 -56.255547 5.002024 -8.306936 -25.191116 -5.000000 36.664848 -22.193708 -10.486716 20.337404 3.893806 15.595774 -0.834843 63.711815 1.926587 0.567951 82.204956 -5.000000 -2.122863 -2.971396 -0.550015 -19.030680 20.240532 19.734634 14.965981 2.095303 -6.521199 -0.529809 -2.823276 7.279571 -9.667133 21.271057 -7.489802 -22.296373 1.956895 1.923731 0.072700 -3.983757 -4.147767 9.645220 
-3.826120 52.745743 -0.178201 -11.223739 -1.375976 2.158753 28.856073 0.236177 1.172743 -0.363743 2.040979 -0.537240 -8.178485 -2.552597 0.297275 9.466739 2.587414 -5.092829 -5.182727 -13.498932 -0.716744 -56.198967 4.914356 -8.248135 -25.220224 -5.000000 36.646320 -22.163095 -10.501637 20.352863 3.689914 15.673824 -0.838880 63.670437 1.992093 0.610502 82.195221 -5.000000 -2.124293 -2.919157 -0.492835 -19.072229 20.262981 19.726641 14.985780 2.107143 -6.568356 -0.472204 -2.820287 7.252150 -9.615758 21.274733 -7.529026 -22.266706 1.987317 1.934728 0.064557 -4.018078 -4.082903 9.682455 
-3.822308 52.746037 -0.173387 -11.223138 -1.366226 2.148991 28.856150 0.216975 1.197670 -0.332356 1.972630 -0.468913 -8.226968 -2.485008 0.287054 9.447255 2.645371 -5.190824 -5.219330 -13.490062 -0.706783 -56.165024 4.861709 -8.213438 -25.261490 -5.000000 36.616161 -22.153906 -10.472882 20.380642 3.573621 15.732352 -0.841905 63.639954 2.022822 0.627184 82.196243 -5.000000 -2.120440 -2.866728 -0.465936 -19.102386 20.254478 19.692896 14.998401 2.133060 -6.549562 -0.455549 -2.831251 7.239460 -9.610152 21.258991 -7.539570 -22.269182 2.007447 1.942030 0.065640 -4.024394 -4.128673 9.663034 
-3.821986 52.744556 -0.167491 -11.203840 -1.366217 2.158754 28.817057 0.225345 1.180915 -0.312392 1.953101 -0.458820 -8.226776 -2.446385 0.281213 9.436134 2.645247 -5.220089 -5.219205 -13.480310 -0.706280 -56.165768 4.859019 -8.226965 -25.293118 -5.000000 36.569138 -22.162754 -10.391730 20.417732 3.564304 15.761609 -0.843417 63.618916 2.023277 0.582848 82.238548 -5.000000 -2.099523 -2.822826 -0.503874 -19.129553 20.238129 19.693970 15.015942 2.134423 -6.559690 -0.504277 -2.916620 7.265513 -9.596462 21.234098 -7.548782 -22.331690 2.035448 1.954987 0.076985 -4.028542 -4.089414 9.647891 
